/* XPM */
static char *magick[] = {
/* columns rows colors chars-per-pixel */
"50 50 256 2",
"   c #153328",
".  c #361e1d",
"X  c #221f2a",
"o  c #35152d",
"O  c #213a1e",
"+  c #242425",
"@  c #2c2323",
"#  c #2c2c2c",
"$  c #26232a",
"%  c gray24",
"&  c gray20",
"*  c #2d2f2c",
"=  c #161652",
"-  c #1e1b55",
";  c #181848",
":  c #1e1e6b",
">  c #3d1e4d",
",  c #221544",
"<  c #2a2648",
"1  c #232358",
"2  c #373756",
"3  c #372a59",
"4  c #3d2262",
"5  c #38316e",
"6  c #0b461e",
"7  c #0d4820",
"8  c #124924",
"9  c #0f6c2e",
"0  c #106d2f",
"q  c #136e31",
"w  c #127533",
"e  c #177b38",
"r  c #30513a",
"t  c #2b5433",
"y  c #2f613f",
"u  c #21793e",
"i  c #3f4541",
"p  c #3a5b44",
"a  c #376745",
"s  c #35784b",
"d  c #267d43",
"f  c #4b1818",
"g  c #511515",
"h  c #591f1f",
"j  c #531a19",
"k  c #451522",
"l  c #541b22",
"z  c #49271c",
"x  c #492727",
"c  c #4a3c2a",
"v  c #423737",
"b  c #592524",
"n  c #533535",
"m  c #7c1f1f",
"M  c #602d2d",
"N  c #683636",
"B  c #7d2424",
"V  c #703e3e",
"C  c #61403a",
"Z  c #434343",
"A  c #4c4c4c",
"S  c #4e4e52",
"D  c #4e504f",
"F  c #4f5350",
"G  c #564848",
"H  c #535353",
"J  c gray36",
"K  c #474767",
"L  c #484877",
"P  c #42654d",
"I  c #5a665e",
"U  c #567861",
"Y  c #684848",
"T  c #675555",
"R  c #794a4a",
"E  c #764b4b",
"W  c #785454",
"Q  c gray39",
"!  c gray42",
"~  c #706c6c",
"^  c #727272",
"/  c #7b7a7a",
"(  c #3e3ea6",
")  c #3030b7",
"_  c #3d3dc5",
"`  c #4545b8",
"'  c #705788",
"]  c #4343c6",
"[  c #5555c0",
"{  c #625fcc",
"}  c #6464d8",
"|  c #7b7bd4",
" . c #158c3d",
".. c #16853b",
"X. c #1c8a41",
"o. c #1b9c46",
"O. c #199643",
"+. c #1da54b",
"@. c #268847",
"#. c #219447",
"$. c #27984d",
"%. c #2f9752",
"&. c #33834e",
"*. c #378752",
"=. c #379957",
"-. c #22a54d",
";. c #25ad52",
":. c #2ba754",
">. c #2cb259",
",. c #35a75b",
"<. c #31b55d",
"1. c #32b85f",
"2. c #3cab61",
"3. c #3ab864",
"4. c #419c5f",
"5. c #479963",
"6. c #54956a",
"7. c #4b8a60",
"8. c #49aa69",
"9. c #44ba6b",
"0. c #4dbd72",
"q. c #59a873",
"w. c #56b877",
"e. c #69a57d",
"r. c #61b87d",
"t. c #4ac172",
"y. c #56c47b",
"u. c #788f80",
"i. c #6da780",
"p. c #68ba83",
"a. c #7ebb92",
"s. c #75b98c",
"d. c #5dc881",
"f. c #69c889",
"g. c #77cb93",
"h. c #822222",
"j. c #8c2323",
"k. c #892b2b",
"l. c #8e3737",
"z. c #863737",
"x. c #942525",
"c. c #932a2a",
"v. c #9b2727",
"b. c #9c2a2a",
"n. c #9c3333",
"m. c #953838",
"M. c #a42a2a",
"N. c #aa2c2c",
"B. c #a02c34",
"V. c #a43333",
"C. c #a43b3b",
"Z. c #ac3232",
"A. c #ae3b3b",
"S. c #b22e2e",
"D. c #b43232",
"F. c #b43a3a",
"G. c #bb3434",
"H. c #bd3b3b",
"J. c #825a5a",
"K. c #994747",
"L. c #985858",
"P. c #874949",
"I. c #886262",
"U. c #8d7777",
"Y. c #996161",
"T. c #967373",
"R. c #aa4747",
"E. c #a65555",
"W. c #b44545",
"Q. c #bb4242",
"!. c #bf4c4c",
"~. c #b64e4e",
"^. c #b85757",
"/. c #ab6767",
"(. c #a57676",
"). c #b76767",
"_. c #b97979",
"`. c #c43c3c",
"'. c #c33a3a",
"]. c #c54444",
"[. c #c34a4a",
"{. c #ca4444",
"}. c #cd4b4b",
"|. c #c55d5d",
" X c #cb5353",
".X c #c25555",
"XX c #d04d4d",
"oX c #d25555",
"OX c #d35c5c",
"+X c #cd6262",
"@X c #c76a6a",
"#X c #c77878",
"$X c #d56464",
"%X c #d86464",
"&X c #d96d6d",
"*X c #d36b6b",
"=X c #d37a7a",
"-X c #da7474",
";X c #db7a7a",
":X c #d37474",
">X c gray51",
",X c gray55",
"<X c #8e8e96",
"1X c #929292",
"2X c gray61",
"3X c #82b392",
"4X c #99b09b",
"5X c #aa8383",
"6X c #b28b8b",
"7X c #b58282",
"8X c #bc9797",
"9X c #a2a2a2",
"0X c gray67",
"qX c #a0a0a9",
"wX c #a8beaf",
"eX c #b4b4b4",
"rX c #bbbbbb",
"tX c #b3a3a3",
"yX c #8f8fd9",
"uX c #acacd6",
"iX c #bdbdc5",
"pX c #86c89c",
"aX c #81d19c",
"sX c #8fc8a2",
"dX c #8ad1a2",
"fX c #96cca8",
"gX c #96d2aa",
"hX c #a2d2b2",
"jX c #bcc0bd",
"kX c #cb8686",
"lX c #cc8a8a",
"zX c #c48585",
"xX c #c29c9c",
"cX c #c89595",
"vX c #db8383",
"bX c #db8d8d",
"nX c #d58686",
"mX c #dc9d9d",
"MX c #d79696",
"NX c #cca9a9",
"BX c #cba4a4",
"VX c #cbbaba",
"CX c #d6a2a2",
"ZX c #d5acac",
"AX c #dba8a8",
"SX c gray77",
"DX c gray80",
"FX c #cac2ca",
"GX c #c2c2d2",
"HX c #d3d3d3",
"JX c gray85",
"KX c #dedee7",
"LX c #e7dede",
"PX c #e2e2e2",
"IX c white",
"UX c gray97",
/* pixels */
"IX/ eXSXrX/ 9X+ Q >X1X# LXR j R LXH ^ U.b z.l.K.L.L.L.Y.L.P.f . Z D Q ! / ,X1X9X0XeXrXrX0X2X/ $ >X! ",
"IXPX/ H / PXH A H Q Q H R .XbXZXn D n g l.K.E././.(.7X5X5X(.Y.% A H Q ! / >X<X2X0X0XeX0X0X2X/ H 1X2X",
"IXIXIXIXIXIX9XD % + H JXn H H T H E k.l.R.E./._.7XzXcXxX8X8X6XT.A H T ! ^ u.,X1X2X9X0X0X9X1XH 1X0XeX",
"IXIXIXIXIXIXIXIXIXIXUX^ 9XrXSXSXW h.c.C.R.^.).#XkXcXmXBXNXNXxX6X(.H Q Q ^ / >X,X1X2X2X2X2XJ 1X0XeXSX",
"IXIXIXIXIXIXIXIXIXIX0X2XrXDXHXtXg k.n.R.~.^.@X#XlXMXmXAXZXZXNXBX6XH J Q ! ^ / >X,X,X1X1X,X,X9XeXVXDX",
"IXIXIXIXIXIXIXIXIXIX! 0XSXHXJXN j.n.C.W.^.|.@X=XnXbXmXAXZXZXNXBX8XD H J Q ! ^ / / >X>X>X>X1X0XrXSXHX",
"1XQ H Q 1XPXIXIXIXIXH 0XSXDXtXm c.B.A.Q.!.|.+X:XvXnXMXmXAXZXZXBXcX7XH J Q Q ! ! ^ ^ / ^ ^ 2X0XrXSXDX",
"9XeXrXrXeXJ DXSX! & + 0XrXSXI.h.c.V.A.Q.[.|.$X*X=XvXbXbXmXmXCXMXcX7XD H J J Q Q ! ! ! ! S 2X0XrXSXDX",
"rXSXHXHXDXrXH $ Q / ,X1X,XiXN j.b.V.F.Q.[. XOX%X&X;XvXbXbXMXMXMXlX_./.D H J J J J Q Q T F 2X0XrXSXDX",
"SXHXJXJXJXDX0XJ / ,X2X0X0X9Xj j.b.N.F.H.].}.oXOX%X&X-X;XvXvXnXnXkX_./.A A H H H J H J H D 1X0XeXjXSX",
"DXHXJXPXJXDXeXH / 1X9XeXeXeXj j.b.N.D.H.].{.XXoXOX%X&X-X=X=X=X=X#X).E.K.A A A H D D A A Z ,X2X0XrXjX",
"DXHXJXJXHXDXeXH / ,X2X0XeXeXj j.b.N.D.G.`.{.{.XXoXOXOX%X*X*X*X@X).^.E.K.Z Z A Z A Z Z v % A 1X9X0XeX",
"SXDXHXHXDXSX0XH ^ >X,X2X9X9Xb j.v.M.S.G.'.'.`.{.XXoXoXOXOX+X+X|.^.~.R.l.v r 2 i i % % + Z J J 1X9X0X",
"rXSXDXSXrXeX2XH ! / U.,X1X1XC h.x.M.N.S.G.'.`.{.{.}.}. X X X.X^.~.R.m.k.x * @ + $ & Z Q Q F 0XQ ,X1X",
"0XeXrXeXeX9XA J Q ! ^ / / I O B x.v.N.S.S.'.'.'.`.{.{.].].[.!.W.W.C.m.B n H J J Q Q Q J H Z 0XrX1X^ ",
"2X9X9X9X2XA A H J I Q ! p 6 e z j.v.M.N.S.S.G.'.'.'.`.`.Q.Q.F.A.C.n.k.j A H H H J H H D Z & 2X0X0X0X",
"1XA H H H $ Z A H H J r q u @.=.5.j.v.M.N.S.S.D.D.G.G.G.F.F.Z.V.n.c.g v Z A A A A A A Z & A >XQ H Q ",
"IX% A H J Z v Z A G r 6 e @.%.=.8.m j.v.M.N.N.S.S.S.S.S.Z.Z.V.b.c.h.J.HX% v Z Z Z Z % Z rXDX^ IXIXIX",
"PXZ Z D H J % + Z i 7 e X.@.=.4.8.w.r.j.v.M.M.M.N.N.N.N.M.b.v.x.h.Y DXJXJXJX* + + A ,XHXJXDXH IXIXIX",
"/ / + Z A H H A & O q ..@.%.,.2.8.w.r.f.g.aXx.b.M.v.v.v.x.j.j.g c U HXJXJXHXiXD A eXSXDXDXrX^ IXIXIX",
"j . & @ Z A A Z r 6 e ..#.$.,.,.8.w.y.f.g.pXdXgXhXhXhXj.j.m 3Xe.7.8 jXDXDXSXeXJ 0X1X0XrX0XH SXIXIXIX",
"8X+ Q / 1X2X1X+ * 9 e ..#.$.,.,.9.0.w.f.f.g.aXdXgXgXgXgXfXpX3Xi.6.s u.SXjXeX2X/ eXeX1XH Q p 6 y wXIX",
"ZXJ ^ ,X>XW M j g f z  .#.-.:.,.9.9.y.y.f.f.g.aXdXdXfXsXsXpXa.i.6.*.P 0X0X2XJ 1X9X0X1X# 6 q.pX4Xz g ",
"A T T b z.l.K.L.L.E.Y.L.P.-.:.>.2.9.0.y.y.f.f.g.g.g.pXpXpX3Xs.e.6.*.8 D D H J H J / >X+ :.0.g.C ^.bX",
"A n g l.K.E.E./._.7X5X5X(.Y.;.>.3.3.9.t.y.d.f.f.g.g.g.g.a.s.p.e.6.&.6 . G H jXDXDXH Q # $.3.y.j ].%X",
"x h.l.R.E./._.zX6XcXxX8X8X6X(.;.1.1.3.t.t.t.y.d.f.f.f.f.s.p.q.q.4.&./.Y.j U.DXJXJXDXD / P ;.<.c S.'.",
"h.m.m.R.^.).#XkXcXMXCXNXBXxX6X(.>.1.1.3.t.t.t.t.y.y.f.y.r.w.q.8.4.@.xX8X(.g U.JXJXDXH DXD s F a f g ",
"c.n.R.~.).@X#XkXMXCXAXZXZXNXxX6X;.>.1.1.3.3.t.t.t.t.0.w.w.8.8.4.*.u NXNXxX5Xg 5XDXrXQ rXY H JXH hXIX",
"b.C.W.^.|.@X=XnXbXmXAXAXZXZXBX8X5X;.;.>.3.3.3.3.9.9.9.9.8.8.=.=.&.u AXZXNX8X(.h 0XD D G v % A v LXIX",
"n.A.W.!.|.$X:X=XbXbXmXAXAXBXBXcX7X;.;.>.>.<.<.3.3.3.2.2.2.,.=.%.@.mXCXAXZXcX7XL.G & H @ ^ 9XeXZ H IX",
"V.F.Q.[. X+X*X;XvXbXMXmXmXCXCXcX7X/.;.;.;.>.>.>.>.,.,.:.,.%.$.@.vXbXMXmXMXcX7XL.k 5 qX+ Q >X! D A H ",
"Z.D.Q.[. XOX$X-X;XvXvXbXMXMXcXlX7X/.+.+.-.;.;.;.:.:.:.:.$.$.@.e -X;XvXbXlXkX_.E.l uX3 + H T H JXS HX",
"N.F.H.[.XXoXOX%X-X-X;XvXvXnXlXkX_./.K.+.+.+.+.+.-.-.-.-.#.@...OX%X&X-X;X=X#X).E.g | = . + + % F ! H ",
"N.D.H.].{.XXoXOX%X&X-X-X;X=X#X#X).E.K.o.o.o.+.+.+. .#. .....{.XXoX%X$X$X@X@X^.K.k < X X ^ + IXIXIXIX",
"N.D.G.H.{.{.XXoXOXOX%X&X*X*X@X@X).E.K. . .o.o. . . . . ...w `.{.}. XoX X.X^.R.m.k ~ 9XeX+ % + H PXIX",
"M.S.G.H.`.{.{.XXoXoXOXOX+X+X|.^.~.K.l. . . . . . .......q '.'.'.{.{.].[.!.W.C.k.' uX>X1X% H ~ N g R ",
"M.N.S.'.'.'.`.{.}.}.}. X.X.X!.~.R.m.k...............w 0 N.S.D.'.H.'.H.F.A.C.c.k { | J Q F JXF .XbXZX",
"v.N.S.S.G.'.'.`.{.{.{.[.[.!.W.W.C.l.h.t w w w w w 9 6 x.M.N.S.S.S.D.D.Z.V.c.g 5 _ ` ; i v H n ].%X=X",
"x.M.N.S.S.'.'.'.'.`.`.Q.Q.Q.A.C.n.k.z y 6 6 8 t O   . g x.v.M.M.N.N.M.b.x.g o 3 = L KXH JX# f S.`.Q.",
"j.v.M.N.S.S.S.G.G.G.G.F.F.Z.V.b.c.g VXIXh ].%X=Xg + >X. g h.x.x.x.x.x.j.j ' - j IXIX2XH H 9XLXR g R ",
"h.j.x.M.N.N.N.S.D.D.D.Z.N.N.b.c.h.T.IXIXR D.`.Q.E / # + / o f g g f k 4 < + X U.IXIXH JXH IXIXIXIXIX",
"J.h.j.x.v.M.N.N.N.N.M.M.b.b.j.B J.UXIXIXLXR g h g Y H 1 = ; ^ 9XeX$ + + ^ 9XeXH IXPX% + i PXIX2XH 9X",
"UXT.g j.x.x.v.v.b.b.v.x.x.j.g T.UXIXIXIXIXIXR .XbXH HX` yXuXQ >X1X^ 9XeXQ >X<X; = 1 ! 9XeXA H H HXH ",
"IXIXVXN m h.j.j.j.j.j.h.B N VXIXIXIXIXIXIXIXh ].%XI.= ] } | H Q Q Q >X1XH J Q [ yXuXQ >X1X+ ^ 9XeXH ",
"IXIXIXIXVXT.V h g h V T.VXIXIXIXIXIXIXIXIXIXR G.`.Q.< ) _ ` ; + # H J Q # + = ] } | H Q Q + Q >X1X+ ",
"IXIXIXIXIXIXIXIXIXIXIXIXIXIXIXIXIXIXIXIXIXIXLXR j R FXK H 2 iXH KX@ X ; = L $ + < ( > %X=X@ H T Q ^ ",
"IXIXIXIXIXIXIXIXIXIXIXIXIXIXIXIXIXIXIXIXIXIXIXIX9XH 9XH JXH H 9XIX(., ` yXuX^ 9XeX$ B.`.Q.* Z D % Q ",
"IXIXIXIXIXIXIXIXIXIXIXIXIXIXIXIXIXIXIXIXIXIXKXL D JXH 9XH 2 = L KXIX1 ] } | Q >X1X# R j R # D JXH H ",
"IXIXIXIXIXIXIXIXIXIXIXIXIXIXIXIXIXIXIXIXIX2XD ` 3 = 1 GX1 ` yXuXK H ; ) _ ` H Q Q H IXIXIXH H H H # ",
"IXIXIXIXIXIXIXIXIXIXIXIXIXIXIXIXIXIXIXIXIXH JX: ` yXuX1 - ] } | X ^ <X5 = 3 $ $ H PXIXIXIXPXH + H PX"
};
