/* XPM */
static char *magick[] = {
/* columns rows colors chars-per-pixel */
"64 64 256 2",
"   c #193a24",
".  c #331e1f",
"X  c #30182e",
"o  c gray14",
"O  c gray17",
"+  c #282626",
"@  c #3c3c3c",
"#  c #343534",
"$  c #2b2a31",
"%  c #18164c",
"&  c #171752",
"*  c #29184a",
"=  c #341c4a",
"-  c #272744",
";  c #252555",
":  c #352f54",
">  c #3f3f71",
",  c #38386a",
"<  c #0d461e",
"1  c #12421e",
"2  c #0d4820",
"3  c #144824",
"4  c #1a512c",
"5  c #0f692d",
"6  c #12692e",
"7  c #127332",
"8  c #157b37",
"9  c #166d33",
"0  c #2b5030",
"q  c #227a3f",
"w  c #2e6e39",
"e  c #325f41",
"r  c #2b7a45",
"t  c #36734a",
"y  c #4c1619",
"u  c #511515",
"i  c #551c1d",
"p  c #481828",
"a  c #48251a",
"s  c #4b2929",
"d  c #473221",
"f  c #473939",
"g  c #582626",
"h  c #573837",
"j  c #57312c",
"k  c #7d1f1f",
"l  c #622a2a",
"z  c #6a3737",
"x  c #7e2424",
"c  c #713f3f",
"v  c #421d52",
"b  c #4b3248",
"n  c #603c5d",
"m  c #564c3c",
"M  c #434343",
"N  c #4c4c4c",
"B  c #4d4545",
"V  c #474754",
"C  c #49584e",
"Z  c #4e5751",
"A  c #534949",
"S  c #535353",
"D  c gray36",
"F  c #5c5454",
"G  c #4f4f74",
"H  c #516e56",
"J  c #5b7b65",
"K  c #684545",
"L  c #764747",
"P  c #795858",
"I  c #6f5858",
"U  c #755160",
"Y  c gray39",
"T  c #6c6c6c",
"R  c #686568",
"E  c gray45",
"W  c gray48",
"Q  c #72727a",
"!  c #706c69",
"~  c #3e3e98",
"^  c #2e2eb0",
"/  c #3838b5",
"(  c #3232a2",
")  c #3a3ac4",
"_  c #493896",
"`  c #454588",
"'  c #4d4db8",
"]  c #4d4da9",
"[  c #6767be",
"{  c #7676a7",
"}  c #4a4acd",
"|  c #5050c9",
" . c #6161cd",
".. c #7272d1",
"X. c #16873c",
"o. c #15933f",
"O. c #1d8b41",
"+. c #1a9844",
"@. c #1da44a",
"#. c #268947",
"$. c #25974b",
"%. c #2b9c51",
"&. c #368c53",
"*. c #379857",
"=. c #31874d",
"-. c #22a54d",
";. c #25ac52",
":. c #2ba855",
">. c #2bb258",
",. c #36a75c",
"<. c #32b45d",
"1. c #3dab61",
"2. c #3ab864",
"3. c #438b5b",
"4. c #43975f",
"5. c #459c62",
"6. c #56996c",
"7. c #4e8b62",
"8. c #48a968",
"9. c #45b96b",
"0. c #4dbb72",
"q. c #59aa74",
"w. c #58b978",
"e. c #6f8b71",
"r. c #64b47e",
"t. c #67a67c",
"y. c #46c06f",
"u. c #4cc274",
"i. c #56c47a",
"p. c #67bb83",
"a. c #79aa89",
"s. c #77b68c",
"d. c #72ae86",
"f. c #5fc681",
"g. c #68c888",
"h. c #73c68f",
"j. c #79ca94",
"k. c #7dd099",
"l. c #842222",
"z. c #8c2424",
"x. c #8b2b2b",
"c. c #832b2b",
"v. c #8a3737",
"b. c #942525",
"n. c #952c2c",
"m. c #9b2727",
"M. c #9d2929",
"N. c #993838",
"B. c #82382d",
"V. c #a32a2a",
"C. c #ab2c2c",
"Z. c #a33333",
"A. c #ab3232",
"S. c #ae3b3b",
"D. c #a53b3b",
"F. c #b22e2e",
"G. c #b43333",
"H. c #bb3434",
"J. c #ba3b3b",
"K. c #8c384d",
"L. c #8b4747",
"P. c #895757",
"I. c #994848",
"U. c #975555",
"Y. c #9b6767",
"T. c #907272",
"R. c #ac4343",
"E. c #a74a4a",
"W. c #a65656",
"Q. c #b54242",
"!. c #bc4a4a",
"~. c #b94646",
"^. c #b95858",
"/. c #a86666",
"(. c #ab7373",
"). c #a67575",
"_. c #b66868",
"`. c #ba7777",
"'. c #c43c3c",
"]. c #c33939",
"[. c #c54a4a",
"{. c #ca4444",
"}. c #cd4b4b",
"|. c #c34343",
" X c #cb5252",
".X c #c65858",
"XX c #d04d4d",
"oX c #d25454",
"OX c #d45c5c",
"+X c #c86666",
"@X c #c97777",
"#X c #d46464",
"$X c #d76a6a",
"%X c #d97575",
"&X c #d77a7a",
"*X c #8a7aa6",
"=X c #83857b",
"-X c #838383",
";X c gray55",
":X c #809f8a",
">X c #939393",
",X c gray61",
"<X c #9a9393",
"1X c #9e8888",
"2X c #9997ae",
"3X c #89b698",
"4X c #96bfa4",
"5X c #ac8181",
"6X c #b68786",
"7X c #b99696",
"8X c #ad9898",
"9X c #a2a2a2",
"0X c #acacac",
"qX c #ada7a7",
"wX c #b7aeae",
"eX c #b4b4b4",
"rX c #bbbbbb",
"tX c #b6bcb8",
"yX c #8787db",
"uX c #9797cd",
"iX c #acacc7",
"pX c #a0a0dd",
"aX c #86c99c",
"sX c #83d09d",
"dX c #8ccea2",
"fX c #8bd2a3",
"gX c #97c9a7",
"hX c #96d2aa",
"jX c #9ed3b0",
"kX c #a4cdb2",
"lX c #a2d2b2",
"zX c #c98787",
"xX c #c19c9c",
"cX c #c99696",
"vX c #db8484",
"bX c #d98a8a",
"nX c #dc9b9b",
"mX c #d89595",
"MX c #cba5a5",
"NX c #cdaaaa",
"BX c #c3a6a6",
"VX c #d4acac",
"CX c #dba3a3",
"ZX c #d7a7a7",
"AX c gray77",
"SX c #cbcbcb",
"DX c #cbc5c5",
"FX c #dccfcf",
"GX c gray83",
"HX c #dadada",
"JX c #dedee7",
"KX c #e7dede",
"LX c gray90",
"PX c #e9e5e4",
"IX c white",
"UX c #f5f6f5",
/* pixels */
"IXIXW eXAXrXW IXLX+ D T a.;X;Xo @.-.$.O.4 LXN D K u B.v.I.I.W././.(.(.).Y./.U.u s @ b N D Y T W ;X>X,X9X0XeXtXtXeX0X9X>XE S S ;X",
"IXIXLXW S W LXIXW M N D Y R R O C X.X.< =XW A a x v.N.I.W./._.`.*X6X6X6X6X=X).Y.L.e B S D R T W -X>X,X9X0X0XeXtXtXeX0X-XS ;X,X9X",
"IXIXIXIXIXIXIXIXD ;Xo N S S rXHXGXI H 6XA 0Xl c.v.N.E.W./._.`.zXzXcXcXxXxXcX6X=XY.L.N S D R T W a.;X>X,X9X0X0XeXeX0X;XS >X,XqXeX",
"IXIXIXIXIXIXIXIXW eX;X@ o O DXDX=XS S F N z l.x.N.R.W.^._.`.@XzXbXcXMXMXMXMXxXcX5X).N S D Y T W W ;X;X<X9X9X0X0X0X0XS ;X,X0XeXiX",
"IXIXIXIXIXIXIXIXLXW S W PXW <XS 9XeXrXrXP x x.N.D.E.^.^.+X@XzXzXcXCXCXVXVXNXNXBX7X=XA F D Y T E Q *X;X>X>X,X9X9X9X9X-X,X0XeXrXDX",
"IXIXIXIXIXIXIXIXIXIXIXIXIXGXS 9XtXDXGXwXu z.n.Z.R.~.^._.+X@X@XbXmXnXCXZXVXVXNXMXxX6X`.F D D R T ! W -X;X;X>X<X,X,X,X>X9XwXrXAXSX",
"IXIXIXIXIXIXIXIXIXIXIXIXIX<X,XeXAXGXHXP k z.M.D.R.~.^..X+X@X&XzXbXnXCXCXVXVXVXNXxX7X5XN D D Y T ! E W -X-X;X;X>X>X-X,X0XeXrXAXSX",
"IXIXIXIXIXIXIXIXIXIXIXIXIXR 9XrXSXGXDXu z.n.Z.S.Q.~. X.X+X$X&XvXbXmXnXCXCXZXZXZXMXcX6XN S D D R ! ! E W =X-X-X-X-X;X,X0XrXAXSXSX",
"GX;XY S D ;XGXIXIXIXIXIXIXS 9XrXSXGX1Xk z.n.Z.S.Q.!. X.X#X$X%X&XvXbXmXnXCXCXCXCXcXcX6X(.S D D D R T T E W W W W W >X9X0XtXAXAXSX",
"N 9X0XeXeX0XS >XUXUX,XS # o 9XeXAXSXL l.b.M.C.S.J.~.[. XOX$X$X%X&XvXbXbXmXmXmXmXcXzX=X(.S S D D Y Y T T T T E E E >X9X0XeXAXDXSX",
"9XtXAXSXSXSXrX9XW # N Y E W -XW ! AXl l.m.M.A.S.J.|.[. XoXOX$X$X%X&XvXvXbXbXmXmXbXzX@X_.N S S D D D Y Y R T T T T ;X9X0XtXiXAXSX",
"eXAXSXHXHXGXSXrXN S R W ;X>X9X9X,X;Xi l.m.M.A.G.J.'.{.}.oXOXOX$X$X%X%XvXvXvXvXzXzX@X@X_.W.N S S D D D D Y Y Y Y Y ;X,X0XeXrXAXSX",
"rXSXHXHXJXHXGXAX0XF E -X>X9X0XeXwX9Xu l.m.M.C.G.H.'.|.[.XXoXOXOX$X$X$X%X%X%X&X@X@X@X_./.E.N N S Z S D D D D D D S -X,X9XeXtXNXAX",
"AXSXHXHXHXHXGXDX0XS W -X>X9X0XtXtXeXi l.b.V.C.G.H.J.'.{.{.XXXXoXOXOX$X$X$X%X$X@X+X_._.^.I.B N N N S S S S S S S S N >X9X0XeXtXAX",
"rXSXGXHXHXHXGXAX0XS E -X>X9X0XeXeXeXg l.b.M.C.F.G.H.'.'.{.{.XXXXoXOXOXOX#X#X#X+X+X^.^.E.I.M N N N N N N N N S N N N ;X>X9X0XeXtX",
"rXSXSXGXGXSXSXrX9XS E W ;X>X9XqX0X0XK k b.M.V.F.G.H.].'.{.{.{.{.oXoXoXoXOXOXOX.X^.^.W.E.N.c.M M M N M N N N N M M M N ;X,X9X0X0X",
"rXAXDXSXSXDXAXwX,XS T W *X-X>X,X,X,XP x z.m.V.C.F.F.].].].].{.{.{.}.}. X X X X X^.!.R.N.N.x @ M M e b M M M b m @ # @ S ;X<X9X9X",
"0XtXAXiXrXkXwX9XN D R E W =X;X;X>X;XC u z.b.M.V.F.F.F.].].].].].{.{.{.{.[.[.!.~.Q.R.D.N.x.u + # @ @ @ @ @ @ @ # o e V ,XS -X>X,X",
"9X0X0XeXeX0X9X>XS D Y R T E W =XE 4 9 d k b.m.V.C.F.F.F.].].].].'.'.'.|.Q.Q.Q.Q.S.D.N.n.x s S M # O o o + $ 0 N D S 0XrX0XE S -X",
"S >X,X9X,X<XS N N S D Y R T E H 3 9 r w &.l.b.M.V.C.F.F.F.].F.].H.J.].J.J.J.S.S.D.Z.n.z.u B S S D D D D D Y Y D S B 9XqX0XeX,XQ ",
"GXM N S S N @ M N S S D Y Y Z 2 9 q #.&.*.k z.b.V.V.C.C.F.F.G.G.H.G.H.G.G.A.A.A.Z.n.z.x s M N N S S D S D S S S N M # >X,X,X,X<X",
"IX# M N S D + b M N S S F Z 2 9 8 #.=.*.5.8.k z.b.V.V.V.C.C.F.F.G.G.F.A.A.A.Z.M.n.z.x y @ M M N N N N N N N N M @ M >XT Y S D ;X",
"IXY m M S F N o e B N N N 3 9 8 #.#.*.*.8.8.q.r.z.b.b.V.V.V.C.C.C.C.C.C.V.V.m.b.z.l.g qXSX@ b M B M N M N B b @ N AXAXR IXIXIXIX",
"IX9X: M N S F 0 o b M M 0 6 8 X.#.%.*.,.8.8.w.r.p.h.z.b.m.V.M.V.V.V.M.M.m.b.z.z.k a J AXGXHXHX0 @ M m : 0 @ o T GXGXrXS IXIXIXIX",
"rXW e f M N S S M + @ @ < 7 8 #.#.%.*.,.8.0.w.r.g.h.j.aXfXhXn.n.b.b.b.b.z.l.l.a.m H 2 tXGXHXHXHXSXO o $ e T eXGXSXAXeXT IXIXIXIX",
"S S R o b M N N N N #   6 8 X.#.$.%.,.1.8.0.w.w.g.h.j.aXfXhXhXjXlXlXkXkXgX4X3Xa.t.7.r e.GXGXHXHXSXeXS ,X0XeXrXrXAXeX,X0XIXIXIXIX",
"L f N @ o @ f e M b e 1 7 8 X.O.$.%.,.,.8.9.w.i.g.g.j.k.sXfXhXhXjXlXlXkXgX4X3Xa.d.7.t 4 AXGXGXSXiX0XD 9XwXeX0X0X0X,XE UXIXIXIXIX",
"*X. o Y Q ;X;X;Xo o O 5 7 X.X.$.$.-.,.,.8.9.0.w.g.g.g.j.k.sXfXfXhXhXhXhXgXgX3Xa.d.6.&.e ,XAXAXiXeX,XR ,X0XwX0X9XW N 0 2 0 a.UXIX",
"CXB D W ;X9X0X0X9XW   6 8 X.X.+.$.-.,.<.,.9.0.u.i.g.g.h.k.k.k.fXfXdXgXgXgXdX3Xs.d.6.&.r J rXtX0X9XS W >X,X9X9X<XW O q.3Xe.g y z ",
"VXS R W >X<XT.L j u u y a X.X.+.$.:.:.<.<.9.9.u.0.i.f.g.g.j.k.k.sXdXdXdXaX3Xs.d.d.6.3.r e 9X9X,XS S S F T ;X>X-XE o g.e.u +XcXNX",
"B F R ! z u B.v.L.L.U.U.U.L.L.+.$.-.:.:.<.2.9.9.0.i.i.g.g.g.k.k.j.k.aXj.j.j.s.d.t.6.3.r 1 m N S >XrXAXAXeXD W E Y   i.j J.#XvXCX",
"B S h u B.v.I.U.W././.(.(.).Y.Y.P.-.;.:.<.<.2.9.y.u.i.i.f.f.g.g.h.h.j.h.h.s.d.p.q.6.3.r P.L.y T.rXSXHXHXGX0XD Y S 0 2.u.H.XX#X%X",
"B i x v.N.I.W./._.`.=X6X6X6XzX=X(.^.:.:.>.<.2.2.y.y.u.u.i.i.i.i.g.g.g.g.p.p.p.q.q.5.3.r `.).Y.y P SXHXHXGXiXF N o O.>.d F.'.}. X",
"g c.v.N.E.W.^._.`.@XbXcXcXcXMXcXzX=X/.:.;.>.<.2.2.y.y.y.i.i.i.i.f.f.g.p.p.w.q.q.8.4.&.q 7X7X6X).P.L GXHXGXrXS m # +.@.w u F.G.G.",
"x x.N.E.E.^._.`.@XzXcXcXZXNXVXVXMX7X=X,.;.>.<.<.<.2.y.y.u.i.u.i.i.i.w.w.w.w.q.8.5.*.=.q NXMXxX7X).P.P.GXDXeXN Y N t N t w a u z ",
"x.N.D.R.^._.+X@XzXbXcXnXZXVXVXVXNXxXcX=X;.>.>.<.<.<.<.9.y.y.y.y.0.0.0.0.0.8.8.8.4.&.=.CXVXVXNXxX6XY.u <XeX,XW eXS S GXS 1 :XUXIX",
"n.Z.R.!.^.^.+X@XzXbXmXnXCXCXVXVXVXMXxX6X@X>.>.>.>.<.<.2.<.9.9.y.9.9.9.9.8.8.1.*.*.=.q CXVXVXVXMX7X).U.j ,XR 0XS s m N B i IXIXIX",
"M.D.R.!.^..X+X@X&XbXmXmXCXCXZXVXVXNXMX7X=X;.;.;.>.>.<.<.<.<.<.<.2.2.1.1.1.1.*.*.&.#.mXnXCXZXVXMXcX6X/.L.m N S 0XO E 9XeXo KXIXIX",
"Z.D.Q.!. X.X+X+X&XvXbXmXnXnXCXCXZXMXMXcX=X_.@.;.;.;.>.>.>.<.<.<.1.1.1.,.,.*.*.%.=.#.bXnXnXCXnXcXcX6X/.L.h 9XtXF O Y *X;XO F IXIX",
"Z.S.Q.~. X.X+X$X%X&XvXbXnXnXnXCXCXnXcXcXzX=XY.@.;.;.;.>.>.>.:.>.:.:.:.:.%.%.%.#.#.%XvXbXbXmXmXmXzX`./.U.y G >X$ F S D F S 0 9XS ",
"C.S.J.~.[. XOX#X$X%X&XvXvXnXnXnXnXmXcXzX=X`.W.@.@.@.@.-.;.;.;.-.:.:.-.%.$.$.$.#.8 $X%X&XvXbXzXzXzX`./.I.i & V B N o o S HXN F HX",
"C.G.J.~.[. XOXOX$X$X%X&XvXvXvXbXmXbXzXzX&X`.W.L.@.@.@.@.-.-.-.-.-.$.$.+.$.#.X.X.OX#X$X%X&X&X&X@X@X_.W.I.u uX& i E 9XeX@ S >X9XS ",
"C.G.J.|.{.}. XOXOX$X$X%X%X%XvXvXzXzXzX@X`._.W.L.@.@.@.@.@.@.@.@.$.+.+.+.#.X.X.XXoXOX#X#X$X$X@X+X_.^.E.N.i ..% u Y -X>X$ IXIXIXIX",
"C.S.H.'.{.[.}. XoX#X#X$X%X%X%X&X&X@X@X@X_./.E.v.o.+.+.o.+.@.o.o.+.+.+.O.X.X.8 {.XXoXoXOXOXOX+X.X^.^.E.v.p - o + N D Y S IXIXIXIX",
"C.G.H.'.'.{.[.}.oXoXOX#X#X$X$X$X@X@X+X+X_.W.E.v.o.o.o.o.o.o.o.o.O.O.X.X.8 7 '.{.{.XX}. X X X.X^.!.E.N.x.P E 9XeX# M S E 8Xz u z ",
"C.F.G.H.'.'.{.}.XXoXoXoXOX#X#X#X+X+X+X_.^.E.I.B.X.X.o.o.o.o.X.X.O.X.X.8 7 G.].'.'.'.{.{.{.[.!.~.R.D.N.x *XuX=X>XM AXHXGXB +XcXVX",
"V.C.F.H.].'.'.{.{.XX X XoXoX.X.X.X.X^.^.E.E.N.B.X.X.X.X.X.X.X.X.X.8 7 7 A.G.H.H.].].].].Q.Q.J.S.D.N.c.s ....D Y S AXHXGXS #XvXCX",
"V.C.F.H.H.].'.'.{.{.{.}. X X X X.X[.!.~.R.D.N.l.3 X.7 X.8 8 8 7 7 5 5 M.C.C.F.H.].].].H.J.G.A.A.M.n.u _ | ' % S E tXAXrXK XX#X%X",
"M.C.C.F.F.].].].].].{.{.{.[.[.[.[.!.Q.R.D.N.x.u 6 7 7 7 7 7 6 6 5 k z.m.V.C.C.F.F.F.G.G.A.C.V.M.b.l.v ^ ^ & iX9XS N S B Z.].{. X",
"m.V.C.F.F.].].].].].].].'.'.{.Q.Q.J.S.D.N.n.c.h H 3 < < 2 1 0 j B.u l.z.b.m.V.V.C.V.C.V.V.M.m.z.x p : & , eXIXS HXN S . u F.G.G.",
"b.m.V.C.F.F.F.F.H.].].].J.J.J.J.S.S.D.Z.n.x.u ! IXi G.}.#XW.l u i I K u l.b.b.m.M.M.m.m.m.b.l.u n & &Xi IXIXIX9XS ,XIXIXBXz u z ",
"z.b.m.V.C.F.F.F.F.F.F.H.H.G.G.G.A.Z.V.n.x.x P.D IXc C.].{.[.~.g B $ o . y k l.z.z.z.z.z.l.k y . - = ~.L IXIX9XS 9XIXIXIXIXIXIXIX",
"l.z.b.M.V.V.C.C.F.C.F.F.G.A.C.C.C.M.n.x.x z eXW IXBXu F.G.G.u 8Xb Z G : & * X g i u u y X X E ,XrXo L KXIXIXS GXS IXIXIXLXW S R ",
"l k z.b.m.V.V.V.V.C.C.C.C.V.Z.V.M.b.z.x g N W LXIXIXBXz u z BXIXN HX& [ uXiX& Y =X>Xo yX{ o Y *X>X$ , & , 2X@ o @ LXIXIXW AXHXGX",
"PXc k l.z.b.m.V.V.V.V.V.M.m.m.m.z.l.k c PXIXIXIXIXIXIXIXIXPXL u f ; /  .yXpXuXZ D Y - : o o S D Y &  .uXiX& E ,XeXS eXM N AXHXGX",
"IXUX).u l.l.z.z.b.b.b.b.b.b.z.l.k u ).UXIXIXIXIXIXIXIXIXIXL ^.bXZX& / }  .....& o $ $ T 9XtXO o & /  .yXpXuXY *X>X+ + W 9XtXAXrX",
"IXIXIXFXP.u k l.l.l.l.l.l.l.k u P.FXIXIXIXIXIXIXIXIXIXIXIXi {.#X&X% ^ ) } | ] ; Y Q o R { ;XO IX& / }  .....S D Y o D W ,X0X9XB ",
"IXIXIXIXIXPX8XP.z i u i z P.7XPXIXIXIXIXIXIXIXIXIXIXIXIXIXL F.'.~.p e NXHXGXV : S D s S V ; & , ; $ $ $ ` ' : vXCX+ S T -X>X;X+ ",
"IXIXIXIXIXIXIXIXIXIXIXIXIXIXIXIXIXIXIXIXIXIXIXIXIXIXIXIXIXKXK u u c S DXHXGXS ` ; u Q.$ % [ uXiX& { 9XeXo % K.#X%X# N S S D Y T ",
"IXIXIXIXIXIXIXIXIXIXIXIXIXIXIXIXIXIXIXIXIXIXIXIXIXIXIXIXIXIXIX9XS 9XW tXAXrXV G JXL G.= /  .yXpXuXW ,XwXqX. ].{. Xv.B AXHXHXM R ",
"IXIXIXIXIXIXIXIXIXIXIXIXIXIXIXIXIXIXIXIXIXIXIXIXIXIXIXIXIXJXG V HXF LXW S R , & , 2XL % / }  .....T =X>X;Xo C.G.G.u S AXGXGXN S ",
"IXIXIXIXIXIXIXIXIXIXIXIXIXIXIXIXIXIXIXIXIXIXIXIXIXIXIXIXIXG ~ ; & & iXIXiX&  .uXiX& iXG ^ ) } | ] D R T T f z u z wXB tXAXrXN S ",
"IXIXIXIXIXIXIXIXIXIXIXIXIXIXIXIXIXIXIXIXIXIXIXIXIXIXIX9XS : &  .uXiX& 2X; /  .yXpXuXG iX& ^ ^ / & N S S M S W LXIXIXD N S S S IX",
"IXIXIXIXIXIXIXIXIXIXIXIXIXIXIXIXIXIXIXIXIXIXIXIXIXIXIXS GX; /  .yXpXuX& & / }  .....& IXb * & * b B o N AXHXGXW IXIXHXS + S JXIX"
};
