/* XPM */
static char *magick[] = {
/* columns rows colors chars-per-pixel */
"85 67 256 2",
"   c #1d1c39",
".  c #183d1c",
"X  c #361d1d",
"o  c #2d1f1f",
"O  c #351a38",
"+  c #32182a",
"@  c #332c1b",
"#  c gray14",
"$  c #2a2929",
"%  c #362727",
"&  c gray23",
"*  c #353334",
"=  c #2e2f34",
"-  c #152e2c",
";  c #191848",
":  c #151551",
">  c #1b1b54",
",  c #181862",
"<  c #321f51",
"1  c #2d1b4a",
"2  c #242456",
"3  c #383847",
"4  c #393954",
"5  c #2f2946",
"6  c #29277a",
"7  c #37376a",
"8  c #3f3d73",
"9  c #2d2968",
"0  c #0b461e",
"q  c #11451f",
"w  c #164c28",
"e  c #1b532d",
"r  c #1e5631",
"t  c #0e4921",
"y  c #137b35",
"u  c #3a4427",
"i  c #314e37",
"p  c #2c623b",
"a  c #236c31",
"s  c #3c5143",
"d  c #25426c",
"f  c #306d44",
"g  c #4d1515",
"h  c #4a1919",
"j  c #511515",
"k  c #531b1b",
"l  c #581c1c",
"z  c #4c1726",
"x  c #4d1a31",
"c  c #4b261c",
"v  c #53221e",
"b  c #4a2829",
"n  c #452834",
"m  c #483636",
"M  c #592627",
"N  c #543636",
"B  c #4f352b",
"V  c #601919",
"C  c #632b2b",
"Z  c #653536",
"A  c #733d3d",
"S  c #6d342b",
"D  c #4b3369",
"F  c #452f50",
"G  c #494c36",
"H  c #444444",
"J  c #4c4c4c",
"K  c #4a4746",
"L  c #484854",
"P  c #45594c",
"I  c #4d5651",
"U  c #524d4d",
"Y  c #554747",
"T  c #535252",
"R  c gray36",
"E  c #585458",
"W  c #535053",
"Q  c #484868",
"!  c #4f4e70",
"~  c #4c7158",
"^  c #5d6f63",
"/  c #684848",
"(  c #675a5a",
")  c #775758",
"_  c #72484a",
"`  c #694960",
"'  c #636364",
"]  c gray42",
"[  c #6c6562",
"{  c #636377",
"}  c #737272",
"|  c gray48",
" . c #797575",
".. c #716c66",
"X. c #33339e",
"o. c #2a2a94",
"O. c #2c2ba9",
"+. c #2d2db0",
"@. c #3232ab",
"#. c #3939b9",
"$. c #3c3cc3",
"%. c #5c5c8d",
"&. c #4e4eb6",
"*. c #4848ab",
"=. c #726e8d",
"-. c #6a6abc",
";. c #756cb7",
":. c #4949cb",
">. c #5656cb",
",. c #5252d0",
"<. c #6161cd",
"1. c #6464d7",
"2. c #7474ca",
"3. c #7979d7",
"4. c #15873b",
"5. c #15923f",
"6. c #1a9c45",
"7. c #189642",
"8. c #1c8d42",
"9. c #1da44a",
"0. c #298748",
"q. c #26984c",
"w. c #369556",
"e. c #22a64e",
"r. c #28aa53",
"t. c #2bb258",
"y. c #37a85d",
"u. c #32b45d",
"i. c #3cac61",
"p. c #39b864",
"a. c #438c5c",
"s. c #42955e",
"d. c #529467",
"f. c #4aa869",
"g. c #45b76b",
"h. c #4cbd72",
"j. c #56bb78",
"k. c #58a672",
"l. c #679475",
"z. c #61b57d",
"x. c #69a57a",
"c. c #54c479",
"v. c #48c070",
"b. c #6caf82",
"n. c #77a888",
"m. c #7db991",
"M. c #6ebb88",
"N. c #738988",
"B. c #5dc881",
"V. c #68c688",
"C. c #73c78f",
"Z. c #7bcd96",
"A. c #7ed09a",
"S. c #8d2626",
"D. c #9a2626",
"F. c #9c2929",
"G. c #962626",
"H. c #9c3434",
"J. c #883737",
"K. c #a32b2b",
"L. c #ab2c2c",
"P. c #ac3131",
"I. c #a53838",
"U. c #b12e2e",
"Y. c #b43333",
"T. c #bb3434",
"R. c #bc3c3c",
"E. c #b43d3d",
"W. c #8d5050",
"Q. c #886666",
"!. c #986d6d",
"~. c #967777",
"^. c #877676",
"/. c #a44a4a",
"(. c #a95d5d",
"). c #ba4d4d",
"_. c #b34848",
"`. c #ba5b5b",
"'. c #ac6969",
"]. c #a87676",
"[. c #b86969",
"{. c #b57979",
"}. c #885469",
"|. c #c33b3b",
" X c #c54444",
".X c #ca4444",
"XX c #cb4b4b",
"oX c #cb5353",
"OX c #c75b5b",
"+X c #d15353",
"@X c #d25b5b",
"#X c #ca6262",
"$X c #ca7575",
"%X c #ca7979",
"&X c #c47676",
"*X c #d86464",
"=X c #d36464",
"-X c #d97474",
";X c #d67979",
":X c #88768c",
">X c gray51",
",X c gray55",
"<X c #9a9a9a",
"1X c #939393",
"2X c #938c8a",
"3X c #8989b7",
"4X c #8e8eaa",
"5X c #87a691",
"6X c #8cb69a",
"7X c #92b19c",
"8X c #97bba3",
"9X c #a88686",
"0X c #b78888",
"qX c #bc9494",
"wX c #ab9999",
"eX c gray64",
"rX c gray67",
"tX c #b4b4b4",
"yX c gray73",
"uX c #b0b3ac",
"iX c #8e8ec5",
"pX c #9999cb",
"aX c #9696d9",
"sX c #8484da",
"dX c #a19fc0",
"fX c #acacc3",
"gX c #a8a8d6",
"hX c #87c79c",
"jX c #8cd2a3",
"kX c #98d1ab",
"lX c #95caa7",
"zX c #a2c8ae",
"xX c #a3d2b2",
"cX c #abccb6",
"vX c #c68b8b",
"bX c #cb9797",
"nX c #dc8a8a",
"mX c #d89595",
"MX c #c9a9a9",
"NX c #dca1a1",
"BX c #d6a9a9",
"VX c #cbbaba",
"CX c #c3c3c3",
"ZX c gray80",
"AX c #c9c1c1",
"SX c #d5d5d5",
"DX c gray85",
"FX c #d5c6c6",
"GX c #dde5df",
"HX c #e6dede",
"JX c #e7e7e7",
"KX c #e9e2e2",
"LX c #eff3f0",
"PX c whitesmoke",
"IX c white",
"UX c #f0ebeb",
/* pixels */
"IXIXIXIXIXIXIXIXIXIXIXIXIXIXIXIXIXIXIXIXIXIXIXIXIXIXk T.XX*X;X%Xk IXIXGXr j L.T..X+X*X-X;X%X[.j IXIXIXIXIXIXIXIXIXIXIXIXIXIXIXIXIXIXIXIXIXIXIXIXIXIXIXIXIXIXIXIXIXIXIXIXIX",
"IXIXIXIXIXIXIXIXIXIXIXIXIXIXIXIXIXIXIXIXIXIXIXIXIXcXh U.|..XXX/.K N k . 8.v K.Y.|..X+X@X#XOX_.j IXIXIXIXIXIXIXIXIXIXIXIXIXIXIXIXIXIXIXIXIXIXIXIXIXIXIXIXIXIXIXIXIXIXIXIXIX",
"IXIXIXIXIXIXIXIXIXIXIXIXIXIXIXIXIXIXIXIXIXIXJX| T J 0.f.U.Y.P.H Z /.[.y 0.G D.L.T.|..X X X_.H.G uXIXIXIXIXIXIXIXIXIXIXIXIXIXIXIXIXIXIXIXIXIXIXIXIXIXIXIXIXIXIXIXIXIXIXIXIX",
"IXIXIXIXIXIXIXIXIXIXIXIXIXIXIXIXIXIXIXIXIXIX[ CXSXSX~ g.M.Z.i N H.).$Xy 7.r.i.K.L.Y.T.T.Y.H.k d.~ IXIXIXIXIXIXIXIXIXIXIXIXIXIXIXIXIXIXIXIXIXIXIXIXIXIXIXIXIXIXIXIXIXIXIXIX",
"IXIXIXIXIXIXIXIXIXIXIXIXIXIXIXIXIXIXIXIXIXMXU CXSXSXI p.c.~ J M P.XX=X4.6.r.u.g.G.K.K.K.D.Z.l.k.r IXIXIXIXIXIXIXIXIXIXIXIXIXIXIXIXIXIXIXIXIXIXIXIXIXIXIXIXIXIXIXIXIXIXIXIX",
"IXIXIXIXIXIXIXIXIXIXIXIXIXIXIXIXIXIXIXIXIX_ / rX] T I = 0.= T j P.|.+X4.7.e.t.p.v.c.c.V.M.M.z.d.t IXIXIXIXIXIXIXIXIXIXIXIXIXIXIXIXIXIXIXIXIXIXIXIXIXIXIXIXIXIXIXIXIXeXT <X",
"IXIXIXIXIXIXIXIXIXIXIXIXIXIXIXIXIXIXIXIXIXl I.U CXDXSXJ # # I k L.T.|.4.5.9.r.u.p.p.h.h.j.j.f.w.r IXIXIXIXIXIXIXIXIXIXIXIXIXIXIXIXIXIXIXIXIXIXIXPX[ c j h ..PXIXIXIXT DXT ",
"IXIXIXIXIXIXIXIXIXIXIXIXIXIXIXJX| T | JXIXA U.J CXDXSXT eXtXJ N D.U.T.4.5.9.e.r.t.u.p.i.g.y.w.0.~ IXIXIXIXIXIXIXIXIXIXIXIXIXIXIXIXIXIXIXIXIXIXPXG g [.bXMXj k j Z wXT T T ",
"IXIXIXIXIXIXIXIXIXIXIXIXIXIXIX| CXDXSX| MXb j K yXCXyX| <XtXeXJ M D.J.P T P 0.9.r.r.t.t.r.r.0.f R T ] CXIXIXIXIXIXIXIXIXIXIXIXIXIXIXIXIXIXIXIX5Xc E.#XnXNXbXC bXBXo ] ' T ",
"IXIXIXIXIXIXIXIXIXIXIXIXIXIXIXR CXDXSXJ o * U = W I T ] :X,X,XH K m T yXZXSXT 0.9.9.9.q.q.7.f T cXSXZXT CXIXIXIXIXIXIXIXIXIXIXIXIXIXIXIXIXIXIXf g T.XX*X-X&X@XnXNX$ T CXDX",
"IXIXIXIXIXIXIXIXIXIXIXIXIXIXIX| yXCXyXeXtXK CXDXSX$ J R ' ] ' o * K tXZXDXDXZXP 7.7.7.7.8.4.K tXZXDXDXZX} IXIXIXIXIXIXIXIXIXIXIXIXIXIXIXIXIXIXt c P.|.XXXX).XX*X[.$ T CXDX",
"] T ] CXIXIXIXIXIXIXIXIXIXIXIXeXK R | <XrXE CXDXSX# # W T E MX0X_ E yXZXSXDXZXT rX<X*X-X;X[.J yXZXDXDXCXE IXIXIXIXIXIXIXHX!.C j C !.HXIXIXIXIXp a 9.P.Y.Y.~ U W.B } ' tXCX",
"yXZXZXT CXIXIXIXIXIXIXIXIXIXIXJ # E ] >X,X' yXCXyXN H.).$XmXBXBX0XK tXCXZXZXyXeXtXtX,X@XOX).U tXAXZXZXyX} IXIXIXIXIXIXVXk /.'.0XqX0Xk VXIXIXIX5X4.6.e.e.r.T DXU # ' | R I ",
"ZXDXGXZX} IXIXIXIXIXIXIXIXIXJXK $ J R [.bXqXY T J k I. X=X;XmXNX0X] T uXtXuX>X1XeXrX1XR.E.H.^.T tXyXtXU [ JXIXIXPX7Xf t I.`.%XmXBXBXqXM KXIXIXPXf 4.5.6.7.f I N % T ' ' $ ",
"ZXSXDXZXT IXIXIXIXIXIXIXIXIX| fXs g E.=XnXmXbXR yXl P.|.+X*X-X;X[.| | K I R } >X,X1X>XL.F.M $ R :X<XrX1XK = ,X8Xe f a.d.l.x.x.d.mXBXbX].~.IXIXIX_ OXnXbXH I  .JXKX$ } eXyX",
"CXZXZXyX} IXIXIXIXIXIXIXIXIXR ZXDXj T.XX*X;X%X| CXZ L.T..XXXoXOX).] R & J E ' ] } } ] # * ] J ] >XeXtXM j l i t 0.s.k.b.m.6X8X7Xn.mXbX{.k eXIXIXv  X*X( CXDXSX| IX$ ' >X2 ",
"tXtXtXU rXIXIXIXIXIXIXIXIXIX| yXCXZ U.|..XXX).] tXQ.F.U.T.|.R.E.H.R T CXH J E R ( l.<XrX<X$ T ] >X1X/.'.0XvX0X0.w.f.j.M.hX,X/ v j v J./.k T eXIX/ T W.T CXDXSXE T G 4 : -.",
"R T W ..l VXIXIXIXIXIXeXE <XJXU T Z j U.T.Y.J R ] ] v F.K.L.L.F.h J T uXCXH T T W ,XeXtXtX,XJ R } I.`.%XmXBX4.q.i.f.M.C.hXkX/.'.&X:X{.j g SXJ J K DX# H tXCXyXT SXJ 2 #.<.",
"CXZXZXT ^.l KXIXIXIXIXT DXT # % } U.S.V g g X I T T # / Z j C n 6 = J ] T K U fXZXZX1XeXrX1XJ E F._.OX;XnXNX0.q.i.g.j.V.J./.[.%XbXMXMXqX].) K } * } i } eXyXI 1XE eX> #.:.",
"ZXDXGXZXK Q.~.IXIXIXIX^.k j M ~.R I ] h ^ p - o x g C O fXIXIX> @.$.&.! I E tXZXDXHXZX,X1X>XH k L.E.oX=X;XnX7.e.y.g.j.V.I.).#X%XmXBXBXMXqXg + > # ' # ( >X,X= | T | Q +.$.",
"ZXDXDXCXT $ M IXIXIXMXj [.[ U Y T DXT $ # T O g [.mXMXj F IXIX7 O.$.$.:.,.T yXZXDXDXZX}  .] # j K.R..X+X*X-X7.q.t.p.v.F.Y.).#X-XnXmXNXNXvX'.z -.aXT $ T L 2 L CXSXSX' : +.",
"CXZXZXyX( >XX IXIXIXA I.U fXDXSXW <XyX* eXyXh E.#XnXNXbXh IXIX4Xo.+.$.$.$.Y uXCXZXZXyXR R U & k K.Y.|..X+X@X7.e.r.u.p.F.Y. XoX=X-XnXnXmXvX'.z <.sX=.# ! : -.pXCXSXSXJ } eX",
"uXyXtXeXeX,X$ ] CXIXl 1 *.;.iXpX3X: { $ =.1Xg T.XX*X;X&Xg IXIXPXD x /.[.vX2XU tXyXtXU J K m :X/ G.L.T.|.|..X5.6.e.t.u.K.Y.|.XX@X*X-X;X;X&X(.j :.1.5 R 2 #.<.sXyXCXyXK ' >X",
"} N.,X,X,X| $ ZXU >XO X.&.2.aXgXfX3X; ; R R h U.|..XXX).g IXIXIX9XH.).$XmXBX9XK W J (.;XmXmXvX .k D.U.U.T.y 5.6.9.e.t.F.U.|.|.XX+X@X=X#X`./.z $.@.# R : #.:.1.3.2.L 4 W R ",
"[ }  .| } ' & DXZXI 2 @.:.<.sXaXaX3X9 :   = m g U.Y.Y.j n IXIXIXZ I.XX=X;XmXmXk U.|.oX*X-X;X[.} [ j D.K.K.y 4.5.9.9.9.G.K.T.|.|..XXXXX)._.H.+ o.: -.J > +.$.:.,.&.9 1.3 # ",
"R ' ' ' ' E ] DXCXE : @.:.,.1.3.3.;.: : > eXuXX k j k :X; fXIXIXk L.|.+X*X-X;XV L.T..XXXoXOX_.' ....N k g 0 y 5.5.9.9.9.F.L.T.T.|.R.E.E.I.j j h D <.sX4 : +.+.DXSXQ :.:.&.",
"I E E E J $ yXCXyX} 7 O.#.fXDXSX>.&.: > > IXIX4 #.<.sXgXpXd IXIXZ K.T..XXXoXOXJ.D.U.T.|.|.E.H.E R ( DXSXR N.0 4.5.5.5.u S.D.L.U.Y.Y.P.K.S.N T [ + $ # = 3 U ] CXSXI =.9 : ",
"e K K K # >XyXuXI ,X` z j M ~.ZX#.X.    7 IXIX> #.:.1.3.2.: <XIX9XD.U.T.|.R.E.H.C D.L.L.L.F.H J J CXDXSXE 8 d 0 4.4.5.5.u j G.D.F.F.G.j M yXDXSXR =.<XrX<XDXSX] yXL : -.pX",
"0 h g g Z U T ' * h /.[.vXbX0XZ L 2 $ # 4 IXIX8 +.$.:.:.&.7 E IXPX_ D.L.U.L.F._ UX9XC g z X & $ K yXCXyX .> #.@ 0 y 4.4.4.a @ j j g b N T ' eXJ ] ,XeXtXtX,XSXU k 1 #.>.sX",
"a.'.{.0X:Xj Z ( W U W.$XmXBXMX0Xn # # R = IXIXeXJ T } CXL 3 eXIXIXPXN M k C N PXIXIXIX7 O.= J /.'.[ T ( Z ; 2 # G.S |..XXX@X#X_ /.k T yXZXZXT T ] >X<XeXrX1XyX[ BXj 8 :.1.",
"a.%XbXMXBXbX].) ZXZXW (.;XmXmXvXM   N.* 4 IXIX| CXDXSX] U j MXIXIXIX| yXCXyX .IXIXIXIX4Xo.< H.).-XmX9X' I & I I R J.T.|. X X X_.H.b tXZXDXGXZXT R } >X,X( I H {.NXbXx $.:.",
"a.;XmXNXBXBXqXj tXDXZX_ OXJ.C j g ` < $ 7 IXIXE CXDXSXW L bXA IXIXIXJX| T T 1XIXIXIXIXPX; z P. X=X].T fX..I VXZXZXU 1XY.T.T.Y.K.k U yXZXDXDXZXT E ' ] } CXDXSX) ;X%Xh +.+.",
"a.-XnXmXNXBXbX'.) SXZXY j /.[.vXqX0Xj * > IXrXK yXCXyXH   }.l IXIXIXIXfX> : > fXIXIXIXIXN g U.|.oX( tXZXJ tXZXDXGXZX' 1XK.K.F.k =.L tXAXZXZXyXJ T E R W CXDXSXT oX).C 7 > ",
"w.*X-XnXnXmXvX'.M ZXtXh I.`.!.( T ( :Xh D IXJ R | <XtXeX3 < A IXIXIXfX: -.iXgX: fXIXIXIX5 h L.T..XW yXZXJ yXZXDXSXZXE >X# z D ;.-.= R =.<XrX<X* G J J J yXCXyX/ Y.g uXeXT ",
"f @X*X-X;X%X&X(.j ^.<XS.N m T fXZXSXI Q.) IX$ E ] >X1X,X# : uXIXIXIX8 *.! T { 3X8 IXIXIX; D D.U.T./ tXCXJ rXCXZXZXtXE ' = :.>.# # * $ * J T R | & J * * K U R ,X,XX :X> DX",
" XXX+X@X#X#X`./.k  .^.$ ( l.tXZXDXDXZX( C PX; *.-.iXdX4X: 2 IXIXIXIX> L CXDXSXE > IXIXIX: @.x D.L.J.U rX' W tXtXtXW E J # G | | # R ] I yXZXZXT eXZXI R = R ' ] ' * : -.aX",
"|.|..XXXXX)._.H.A # # E } ,XtXZXDXDXZXW k 4XX.&.2.aXgXgX3X; uXIXIXIX4 J CXDXSXU 4 IXIXIX2 O.6 n k j b T U & J W U J K <XrX<X* $ R } R tXZXDXGXZX' DXZXK # } / k g h O 8 3.",
"U.T.|.|.R.E.I.tXtXeX# R  .,XuXCXZXZXtXU C 7 @.:.1.3.aXaXiX2 J IXIXIXs T yXCXyX' & IXIXIX9 : *.CXDXSX4X> > o.+ o J ] ,XeXtXtX,XK R  .,XyXZXDXDXCXT DXZXU m j /.[.0XqX0Xk < ",
"L.U.U.Y.U.K.S.uXtXrX>XR } >X,XuXtXtX>Xm ~.> +.$.,.1.3.3.;.: $ IXIXIX$ E ] >X2X>X; PXIXIX> X.&.CXDXSXgX3X; , z % T ] =.<XeXrX1XL R ] >XuXCXZXCXyXJ CXyXE j I.`.%XmXBXBXqXl ",
"G.D.F.D.G.N.1XeXeXeX,XR '  .N.,X1X,X| # KX7 O.#.:.:.>.>.&.> K IXIXIXJ J R ] iXdX3X! PXIX> @.:.tXCXyXaXiX2 : g # J R } >X,X1X>XJ R ' } >XtXyXuXT * l.w X F._.OX$XnXNXBXbX].",
") j J R ' } l.2X,X,X| T R ] }  .|  .' # & L o.O.#.$.#.#.@.  K IXIXIX%.X.&.2.aXgXgX3X4XIX: +.$.,.1.3.3.-.: : z * J E ' ] } } ] K T R ] ] | | E R q 0.s.d.H.R.oX*X;XnXmXbX{.",
"AX$ J E R ] }  .|  .] J T R ' ' ' R T ,X<X1X# H I X.O.o.eX& $ IXIXIX7 @.:.1.3.aXaX3X9 IX9 O.$.$.:.>.>.&.> 3 O W cXZXZXR R R J H J E R ' ' ' ( T 0.s.k.x.6XT. X@X*X-X;X$X[.",
"tX* K J E R ' ' ] R J = J T E E E J ,XeXtXtXeX$ yXT } ,X,X$ $ IXIXIX> O.$.,.1.3.3.-.> IX3Xo.+.$.#.#.#.X.  T R tXZXHXHXZXJ H # $ K J T T [.0XqX0.w.f.z.C.hXlXxXXXXX@X@XOX/.",
"H J J yXZXZXT E E J # # s K K K H  .,XeXuXtXrX>X] ZXT ] ]   H IXIXIX7 O.$.:.:.>.>.&.7 IXPX: o.O.CXDXSXL G N W yXZXDXDXZXI b ~.R # H I.`.%XbXBXq.y.j.z.C.hXkXxXxX|. X)._.H.",
"$ L tXZXDXHXZXU H # H E G $ # J R } >X1XeXrX>X,X* ZXT iXpX3X7 PXIXIX4Xo.+.#.$.#.#.X.4XIXIX7 6 J ZXDXSXW _.mX[ uXCXZXZXyX} IXIXIXQ.F._.OX;XnXmXq.y.g.j.C.A.jXkXxXzX8XP.I.g ",
"<XW yXZXDXDXCXW & & J E R N # J E ]  .fXZXZXI ] $ tXJ * { rX` M j C 9X; o.O.+.O.o.; rXIXIXfX: Q tXCXyXK j V / U uXtXuXU CXIXIXIXC L.E.oX*X;XnXe.y.g.h.V.C.A.jXjXlX6XM.d.# ",
"yXR rXCXZXZXyX' E 1XU 2Xl /.[.K T R tXZXDXGXZXT * T =.rX<Xz /.[.vXbXqXZ   : : > %.  3 IXeXE { ; L U K '.bXBXj ^.W W ] CXIXIXJX| j K.R.XX+X*X-Xq.t.p.g.c.B.C.Z.A.hXm.b.d.0 ",
"T T W uXyXuXT <X} PXU k I.`.%XbXJ E yXZXDXDXCXT & <XeXtXtXH.).$XmXBXMX0X+ #.>.sXgXpX; IXJ J H I R rXE.#XnXNXbXz eXIXIXIXIXIX| cXC K.T.|..X+X@Xe.r.u.p.v.c.c.V.V.V.M.k.s.0 ",
"[ / <XU T R 1XU CXIXN H._.OX$XnXNXI uXCXZXZXtXH R N.1XeXrXP.XX=X;XmXmXvXh #.:.1.3.2.: IXi R CXDXSXR T.XX*X;X&Xl IXIXIXIXIXIXR CXQ.D.L.T.|.|.5.6.e.t.u.p.v.v.c.c.j.h.f.w.e ",
"&Xk IXCX] T ] CXIXIXC L.R.XX*X;XnX].W uXtXtXW K ' } >X,X,XU.R.oX*X;X;X[.h L T ! &.8 2 T H E CXDXSXU U.|.XXXX).M IXIXIXIXIXIX| tXuXl K.L.U.T.5.6.9.e.t.u.p.p.p.g.g.f.w.0.~ ",
"5Xv PXIXIXIXIXIXIXIXk K.R..X+X*X-X;X'.( W E H J R ' ] } } L.T..XXX@XOX_.k CXDXSX] # n C j k ~.CXyXK h U.Y.Y.j N IXIXIXIXIXIXJX| T % j D.K.K.4.5.9.9.e.t.t.t./.[.0XqX0Xh K ",
"zXn.5XIXIXIXIXIXIXIXC K.T.0.a.d.l.x.l.d.0 ^ = H J E R ( R D.U.T.|.|.E.I.m CXDXSXuXrXj [.bXMXg N ' rXX v >XM % <XIXIXIXIXIXIXIXIX9X# Y N l j y 4.5.9.9.9.e.I.`.%XmXNXBXqXv ",
"lXm.p IXIXIXIXIXIXIXI G.0.s.k.b.6X6X6X6Xn.0 & M j M b K K k D.R =.<XrX<X$ eX] T R >XE.#XnXmXbXk R W K W R ' T eXIXIXIXIXIXIXIXIXPX$ J E ' I 0 y 5.5.5.9.G.E.OX$XnXNXBXbX].",
"V.z.t IXIXIXIXIXIXzX0 0.w.f.b.m.hXlXzXzX8Xn./.'.0XqX0Xj ( } J ] ,XeXtXT R * ] DXSXE T.XX*X;X%Xj CXDXSXU # T DXT IXIXIXIXIXIXIXIXIX| T yXZXZXs t 4.4.4.5.H.E.oX*X-XnXmXbX{.",
"bXi.p IXIXIXIXIXPXe 4.q.i.k.B.C.hXkXxXcXzX7Xx.&XmXBXMXqXk * T ] >X<XCXZXZXT =.DXSXU Y.|.XXoX).M tXDXSXU IXeXT eXIXIXIXIXIXIXIXIXIX] tXZXGXGXZXi 0 y y 4.K.T..X+X*X-X;X%X[.",
"%X0.5XIXIXIXIXIX7Xr B h g g.j.V.A.jXkXkXzX8Xn.a.nXmXBXMX].h J ' } tXZXDXHXZX' ,X} Y j U.Y.P.tXX | eXyXY IXIXIXIXIXIXIXIXIXIXIXIXIXE yXZXDXSXZXU I i w h K.Y.|.XX+X@X#XOX/.",
").v PXIXIXIXIXPXB j /.'.{.0X].V.C.A.jXjXlXhXn.d.-XnXmXbX{.l J E ' tXZXDXDXCXT 1X# H.c R | <XuXeX* ,X# / IXIXIXIXIXIXIXIXIXIXIXIXIXE uXCXZXZXyXU H J E N D.L.T.|.|..X)._.H.",
"j rXIXIXIXIXIX~.F./.[.%XbXMXMXqX!.C.Z.A.A.m.b.d.*X-X;X%X[.j H U T uXCXZXZXyXR >X# $ # T ] >X2X,XK ( $ MXIXIXIXIXIXIXIXIXIXIXIXIXIXT T uXtXtXT * $ H J U j K.L.U.T.T.Y.P.j ",
"MXIXIXIXIXIXFXj I.).#X%XmXBXBXMXqXc.V.V.V.M.k.s.+X@X@X`./.v # G J T uXtXuXT ] ] # Q.# J R ] CXDXSX] R IXIXIXIXIXIXIXIXIXIXIXIXIXIX| 1X' T E E cXC P.G J m j G.K.K.K.F.j K.",
"IXIXIXIXIXIXQ.G.I.XX#X$XnXmXNXBXbX'.c.c.j.k.f.w..X.X X_.I.N % A % * J T T E R J [ 0XZ # J T CXDXSXR R IXIXIXIXIXIXIXIXIXIXIXIXIXIXJX| T | JXE CXj P. X+X*X#XG c j v G z.U.",
"IXIXIXIXIXIXC F.E. XoX*X-XnXnXmXvX'.g.g.g.f.w.0.T.T.Y.K.g K S .XXXoXs J J CXDXDX[ BX0XX n H tXCXyX[ | IXIXIXIXIXIXIXIXIXIXIXIXIXIXIXIXIXIXIX| tXC L.T..XXXoXe.t.u.p.h.h.D.",
"IXIXIXIXIXIXj K.Y.|.XX@X*X-X;X;X$X(.u.y.y.y.0.y K.K.D.h m n L.T.|.V.hXkXE CXDXSXT mX0Xg *X$X( U I } JXIXIXIXIXIXIXIXIXIXIXIXIXIXIXIXIXIXIXIXJX| N D.U.T.|.R.9.e.t.u.p.i.y.",
"IXIXIXIXIXIXC F.U.T. XXX+X@X#X#X`./.h r.q.8.8.. g M Q.AXZXP q.y.h.V.Z.jX^ tXCXyX) ;X[.j .XoX).A IXIXIXIXIXIXIXIXIXIXIXIXIXIXIXIXIXIXIXIXIXIXIXIXPX_ D.L.L.L.5.9.9.r.r.r.q.",
"IXIXIXIXIXIXQ.G.L.T.|.|..XXXXX X_.H.u 6.8.4.0 s yXZXDXSXZXI q.t.g.c.V.Z.m.^ I R `.OX).l Y.Y.j tXIXIXIXIXIXIXIXIXIXIXIXIXIXIXIXIXIXIXIXIXIXIXIXIXIXPX9XC g y 5.5.6.9.6.6.7.",
"IXIXIXIXIXIXFXj K.L.U.|.|.T.R.E.I.g a 4.4.0 5X} uXCXZXZXyXP 9.r.p.v.v.B.V.V.b.f.R.E.H.M g Z MXIXIXIXIXIXIXIXIXIXIXIXIXIXIXIXIXIXIXIXIXIXIXIXIXIXIXIXIXIXPXl.g 4. X+X=X-X;X",
"IXIXIXIXIXIXIX~.S.F.L.U.U.U.L.K.S.u y y e 8XIXVXT rXtXtXJ f 6.9.t.p.p.v.c.j.f.w.L.F._ PXIXIXIXIXIXIXIXIXIXIXIXIXIXIXIXIXIXIXIXIXIXIXIXIXIXIXIXIXIXIXIXIXIXIXM L.T..XXX+XOX",
"IXIXIXIXIXIXIXPX!.j D.D.K.D.G.j @ w ~ 7XLXIXIXIXCX] T ] i 4.7./.[.vXbX0Xp.i.y.0.u 9XPXIXIXIXIXIXIXIXIXIXIXIXIXIXIXIXIXIXIXIXIXIXIXIXIXIXIXIXIXIXIXIXIXIXIXIX9XF.U.T.|.|.E."
};
