/* XPM */
static char *magick[] = {
/* columns rows colors chars-per-pixel */
"32 32 255 2",
"   c #1d1c37",
".  c #1b1b3c",
"X  c #1e2f1e",
"o  c #3b1e1e",
"O  c #291d2c",
"+  c #2a1638",
"@  c #39142c",
"#  c #311637",
"$  c #26361d",
"%  c gray14",
"&  c #262927",
"*  c #292324",
"=  c #2a2929",
"-  c #273a27",
";  c gray21",
":  c #3c3c3c",
">  c #3b2626",
",  c #14144f",
"<  c #161551",
"1  c #191955",
"2  c #191651",
"3  c #2d2d55",
"4  c #303048",
"5  c #373752",
"6  c #0c451e",
"7  c #174a27",
"8  c #1c4a2b",
"9  c #1d4331",
"0  c #137b36",
"q  c #177637",
"w  c #2c5334",
"e  c #354a3c",
"r  c #35523f",
"t  c #451717",
"y  c #4d1516",
"u  c #4c191a",
"i  c #461c18",
"p  c #511515",
"a  c #511816",
"s  c #551a1a",
"d  c #531d2a",
"f  c #423333",
"g  c #512c2c",
"h  c #5c2525",
"j  c #542323",
"k  c #523737",
"l  c #5c3231",
"z  c #602828",
"x  c #703e3e",
"c  c #413544",
"v  c #415632",
"b  c #444444",
"n  c #474948",
"m  c gray30",
"M  c #4f4545",
"N  c #4f4f51",
"B  c #504747",
"V  c #524c4c",
"C  c #5b4c4c",
"Z  c #535353",
"A  c #595050",
"S  c #5b5b5b",
"D  c #484869",
"F  c #454566",
"G  c #534465",
"H  c #5d5d6c",
"J  c #4d6354",
"K  c #427151",
"L  c #6c4040",
"P  c #694848",
"I  c #744141",
"U  c #784c4c",
"Y  c #77695c",
"T  c #646464",
"R  c gray42",
"E  c #746565",
"W  c #747474",
"Q  c #7c7c7c",
"!  c #7e7ea0",
"~  c #615ac0",
"^  c #6464d8",
"/  c #138338",
"(  c #178d3e",
")  c #1b843e",
"_  c #15923f",
"`  c #1d8c42",
"'  c #179340",
"]  c #1d9143",
"[  c #1b9c46",
"{  c #1d9e48",
"}  c #1ea74c",
"|  c #2a8648",
" . c #298949",
".. c #29924d",
"X. c #26994c",
"o. c #378f54",
"O. c #379958",
"+. c #359d57",
"@. c #27a04f",
"#. c #21a94f",
"$. c #27a551",
"%. c #25ad52",
"&. c #2eac58",
"*. c #29b156",
"=. c #2fb45b",
"-. c #34ab5c",
";. c #38a95e",
":. c #3aa35d",
">. c #31b35d",
",. c #39b964",
"<. c #49875d",
"1. c #42985f",
"2. c #44945f",
"3. c #4e9666",
"4. c #519367",
"5. c #4ba669",
"6. c #42a864",
"7. c #44b569",
"8. c #43bc6c",
"9. c #4bb26e",
"0. c #5baa76",
"q. c #51bf76",
"w. c #57bf79",
"e. c #5abc7b",
"r. c #54b173",
"t. c #6b8674",
"y. c #61b77e",
"u. c #46c06f",
"i. c #4bc172",
"p. c #51c477",
"a. c #5bc77f",
"s. c #53c479",
"d. c #6baf81",
"f. c #68b983",
"g. c #76ad89",
"h. c #7bbe91",
"j. c #62c984",
"k. c #6cc58a",
"l. c #67ca88",
"z. c #70cc8f",
"x. c #75c48f",
"c. c #7fcd99",
"v. c #77ce94",
"b. c #7ed09a",
"n. c #882323",
"m. c #8a2b2b",
"M. c #8e3939",
"N. c #922525",
"B. c #942c2c",
"V. c #9b2727",
"C. c #9c2929",
"Z. c #963737",
"A. c #9d3737",
"S. c #983939",
"D. c brown",
"F. c #ac2c2c",
"G. c #a23232",
"H. c #a23838",
"J. c #ad3333",
"K. c #b42f2f",
"L. c #b53333",
"P. c #bb3434",
"I. c #bb3c3c",
"U. c #815555",
"Y. c #9d4f4f",
"T. c #846e6e",
"R. c #986464",
"E. c #a14848",
"W. c #a84141",
"Q. c #ab4c4c",
"!. c #b24242",
"~. c #ba4242",
"^. c #b75555",
"/. c #b75b5b",
"(. c #bc5151",
"). c #a75757",
"_. c #a86363",
"`. c #a36464",
"'. c #a27d7d",
"]. c #ab7a7a",
"[. c #ae7474",
"{. c #bd6e6e",
"}. c #b56464",
"|. c #b67777",
" X c #bf7a7a",
".X c #c43b3b",
"XX c #c44343",
"oX c #c74a4a",
"OX c #cb4444",
"+X c #cd4c4c",
"@X c #c45353",
"#X c #cd5f5f",
"$X c #c85656",
"%X c #d04d4d",
"&X c #d25353",
"*X c #d25a5a",
"=X c #cf6464",
"-X c #cb6969",
";X c #c46868",
":X c #c07e7e",
">X c #cb7979",
",X c #d46565",
"<X c #d86464",
"1X c #d96e6e",
"2X c #d97474",
"3X c #d57979",
"4X c #838383",
"5X c gray55",
"6X c gray57",
"7X c #9a9a9a",
"8X c #93bfa1",
"9X c #a69292",
"0X c #b48888",
"qX c #be8989",
"wX c #bb9595",
"eX c #be9a9a",
"rX c #a2a2a2",
"tX c gray67",
"yX c #aaa3a1",
"uX c #b6afaf",
"iX c #bfa8a8",
"pX c gray70",
"aX c gray73",
"sX c #82cb9a",
"dX c #89c69d",
"fX c #8cd2a3",
"gX c #93cba6",
"hX c #92d1a7",
"jX c #9ad3ad",
"kX c #a0cbae",
"lX c #a1d2b1",
"zX c #c58e8e",
"xX c #cc8181",
"cX c #cf8c8c",
"vX c #c69d9d",
"bX c #cf9c9c",
"nX c #ce9292",
"mX c #dc8282",
"MX c #da8d8d",
"NX c #dd9292",
"BX c #dd9e9e",
"VX c #d29595",
"CX c #caa1a1",
"ZX c #cdabab",
"AX c #c6bdbd",
"SX c #d4acac",
"DX c #daa1a1",
"FX c #d8a8a8",
"GX c gray77",
"HX c #cbcbcb",
"JX c #d5d5d5",
"KX c gray85",
"LX c #dde5e0",
"PX c #e5dbdb",
"IX c white",
/* pixels */
"IXIXIXIXrX% 4X% k '.rXM j M.Y._.[.].].R.i Z T Q 5XyXpXaXpX4Xm rX",
"IXIXIXIXZ W % JXZ a V h Z.Q.}.:XzXvXvXwX].Z R Q 5X7XtXpXtXZ yXaX",
"IXIXIXIX9XZ W Z V Z j B.W.^.;XxXVXFXSXZXeXZ T W 4X6X7XrXrX7XpXGX",
"IXIXIXIXIXIXIXQ GX9Xn.G.!.(.-XxXMXBXFXSXCX0XS R W 4X5X6X6XrXaXHX",
"R Z R aX5X; O * GXU N.G.~.@X=X2XmXNXBXDXbXqXS T R W Q Q t.yXaXHX",
"GXHXHXZ S g.7XyX7Xh C.J.I.oX&X<X2XmXMXNXcX:XZ S T T R R R rXaXGX",
"HXKXKXHXZ 4XrXpXpXa V.J.I.XX+X&X<X1X3X3X>X{.).Z Z S S S Z 7XtXaX",
"HXKXJXHXV ! 7XyXtXs V.F.P..XOX%X&X*X,X,X;X/.E.n m Z Z m n N rXuX",
"HXHXHXaXZ W ! 5X5Xl N.D.K..X.XOXoX+X$X$X(.Q.S.v b b b b % S Z 7X",
"pXaXpXV Z T R W J $ n.D.F.K.P..X.XXXXX~.!.H.m.> & % & ; c pXtXW ",
"R V m n m Z S r 6 | 1.N.D.F.K.P.P.P.P.J.G.N.y b n m m b : Z Z R ",
"rX= m = b n e 6 ` O.5.y.N.V.D.F.F.F.F.D.N.d AXJX= % ; Q HXS IXIX",
"m e % m : & 6 ) ..:.9.y.x.dXN.V.V.V.N.n.i yXJXJXZ rXaXGXaXQ IXIX",
"i = % % % - 0 ` X.;.9.y.l.sXfXjXlXkX8Xg.<.t.HXaXS 7XtXrXn 7 K LX",
"SXQ T.L y y y ] @.-.7.p.a.v.sXfXgXgXdXg.4.8 N Z Z Z T 4X% sXY p ",
"A h M.Y._.[.].].R.&.>.i.s.a.z.v.c.sXh.d.3.6 o M GXKXKXZ - p.a <X",
"u Z.Q.}. XzXvXvXwX].>.,.u.p.a.j.k.k.f.0.3.wX0Xp 9XKXJXB q %.v a ",
"B.W.^.;XxXVXDXSXZXvX*.=.,.8.q.p.w.e.r.5.o.FXZXwXs uXaXT w JXw LX",
"H.!.(.-X3XNXBXFXSXCX0X*.=.>.,.7.7.7.6.O.| BXFXCX].g n ! o * o IX",
"G.~.@X=X2XmXNXBXDXbXqX`.*.*.>.>.-.-.+. .3XMXNXnX|.y 4X% % 4X% IX",
"J.I.oX*X<X2XmXMXMXcX:X`.} } #.#.$.X...) <X2X3X>X}.p . f % % JXJX",
"J.I.XX+X*X<X1X2X3X>X{.).[ } { { [ ] ) OX%X*X,X/.Q.d   % m & IXIX",
"F.P..XOX%X&X*X,X=X;X/.E._ _ ] _ ( 0 P..X.XXXoX!.A.@ . 4Xe Z E s ",
"D.L.P..XOX+X+X+X@X(.Q.S./ / / 0 0 V.F.K.P.L.J.G.y ~ 2 = Z JXV <X",
"C.F.K..X.X.XXXXX~.!.H.m.- 6 6 9 X y N.D.D.D.V.y # < ! IX5XZ E s ",
"N.D.F.K.K.K.P.P.J.G.B.I IXs <Xy m O @ u y h g *   s IXIXIXIXIXIX",
"z N.C.D.F.F.F.D.C.N.h PXIX'.s P JXF < . T V : 4XO '.4X& 4XIXrXZ ",
"PXx n.N.V.V.V.N.n.x PXIXIXIX'.p t , ^ < % 4 % % F 1 . 4X& 4XZ KX",
"IXIXiXU.h p h U.iXIXIXIXIXIXs <Xp c Z H F % 4X% 1 ^ < % C & 4XV ",
"IXIXIXIXIXIXIXIXIXIXIXIXIXIX'.p p Z JXZ y I . < 3 % O <Xs R N R ",
"IXIXIXIXIXIXIXIXIXIXIXIXIXIX! 1 JXrXZ 5 G s < ^ < 4X% s '.Z KXZ ",
"IXIXIXIXIXIXIXIXIXIXIXIXIXIXJX^ 1 IX1 ^ 1 IX# < + & 4XIXIXrXZ rX"
};
