#define left_width 20
#define left_height 20
static char left_bits[] = {
 0x00,0x00,0xf0,0x00,0x00,0xf0,0x00,0x01,0xf0,0x80,0x01,0xf0,0xc0,0x01,0xf0,
 0xe0,0x01,0xf0,0xf0,0x01,0xf0,0xf8,0xff,0xf1,0xfc,0xff,0xf1,0xfe,0xff,0xf1,
 0xfe,0xff,0xf1,0xfc,0xff,0xf1,0xf8,0xff,0xf1,0xf0,0x01,0xf0,0xe0,0x01,0xf0,
 0xc0,0x01,0xf0,0x80,0x01,0xf0,0x00,0x01,0xf0,0x00,0x00,0xf0,0x00,0x00,0xf0
};
