#define right_width 20
#define right_height 20
static char right_bits[] = {
 0x00,0x00,0xf0,0x00,0x00,0xf0,0x00,0x08,0xf0,0x00,0x18,0xf0,0x00,0x38,0xf0,
 0x00,0x78,0xf0,0x00,0xf8,0xf0,0xf8,0xff,0xf1,0xf8,0xff,0xf3,0xf8,0xff,0xf7,
 0xf8,0xff,0xf7,0xf8,0xff,0xf3,0xf8,0xff,0xf1,0x00,0xf8,0xf0,0x00,0x78,0xf0,
 0x00,0x38,0xf0,0x00,0x18,0xf0,0x00,0x08,0xf0,0x00,0x00,0xf0,0x00,0x00,0xf0
};
